<svg xmlns="http://www.w3.org/2000/svg" viewBox="0 0 64 64" width="64" height="64">
  <title>Minimalist Electric Stove Icon</title>
  <desc>A clean, line-art SVG icon of an electric stove top with four burners and control knobs.</desc>
  <g fill="none" stroke="#ffffff" stroke-width="2" stroke-linecap="round" stroke-linejoin="round">
    <rect x="4" y="8" width="56" height="48" rx="4" ry="4"/>
    
    <line x1="4" y1="44" x2="60" y2="44"/>

    <circle cx="18" cy="22" r="8"/>
    <path d="M18,18 a4,4 0 0,1 4,4 a4,4 0 0,1 -4,4 a4,4 0 0,1 -4,-4 a4,4 0 0,1 4,-4"/>

    <circle cx="46" cy="22" r="8"/>
    <path d="M46,18 a4,4 0 0,1 4,4 a4,4 0 0,1 -4,4 a4,4 0 0,1 -4,-4 a4,4 0 0,1 4,-4"/>

    <circle cx="18" cy="36" r="6"/>
    <path d="M18,33 a3,3 0 0,1 3,3 a3,3 0 0,1 -3,3 a3,3 0 0,1 -3,-3 a3,3 0 0,1 3,-3"/>

    <circle cx="46" cy="36" r="6"/>
    <path d="M46,33 a3,3 0 0,1 3,3 a3,3 0 0,1 -3,3 a3,3 0 0,1 -3,-3 a3,3 0 0,1 3,-3"/>

    <circle cx="14" cy="50" r="2.5"/>
    <circle cx="26" cy="50" r="2.5"/>
    <circle cx="38" cy="50" r="2.5"/>
    <circle cx="50" cy="50" r="2.5"/>
  </g>
</svg>